<?xml version="1.0" standalone="no"?><!DOCTYPE svg PUBLIC "-//W3C//DTD SVG 1.1//EN" "http://www.w3.org/Graphics/SVG/1.1/DTD/svg11.dtd"><svg t="1725690960011" class="icon" viewBox="0 0 1024 1024" version="1.1" xmlns="http://www.w3.org/2000/svg" p-id="8721" xmlns:xlink="http://www.w3.org/1999/xlink" width="32" height="32"><path d="M512 449.281755m-449.281755 0a449.281755 449.281755 0 1 0 898.56351 0 449.281755 449.281755 0 1 0-898.56351 0Z" fill="#FFD93B" p-id="8722"></path><path d="M961.249755 449.249755c0 248.19297-201.184786 449.249755-449.249755 449.249755-141.216552 0-267.297044-65.152255-349.697366-167.200653 77.056301 62.336244 175.200684 99.520389 282.049102 99.520388 248.064969 0 449.249755-201.024785 449.249755-449.217754 0-106.848417-37.216145-204.960801-99.520389-282.049102 101.888398 82.400322 167.168653 208.448814 167.168653 349.697366z" fill="#F4C534" p-id="8723"></path><path d="M783.649061 639.682499c-53.216208 95.072371-155.008606 159.392623-271.52106 159.392622-116.768456 0-218.560854-64.320251-271.777062-159.392622-19.360076-34.624135 15.23206-74.400291 52.704206-61.760241 145.95257 49.344193 291.90514 49.344193 437.88971 0 37.440146-12.640049 72.064282 27.136106 52.704206 61.760241z" fill="#3E4347" p-id="8724"></path><path d="M464.927816 612.962394c-3.712015 17.216067-8.192032 46.784183 3.104012 55.808218 16.160063 12.928051 212.320829-13.728054 247.840968-37.952148 20.128079-13.728054 17.440068-35.488139 11.328045-51.776202-87.424342 29.056114-174.848683 40.256157-262.273025 33.920132zM396.191548 667.170606c5.568022 0 20.57608-32.320126 25.440099-59.04023-33.472131-4.672018-66.944262-12.000047-100.416392-21.856086-4.608018 17.504068-11.456045 46.01618-9.824039 55.872218 2.43201 14.528057 77.536303 25.024098 84.800332 25.024098z" fill="#FFFFFF" p-id="8725"></path><path d="M665.6326 958.531744c-6.720026 76.7043-130.976512 74.656292-186.528729 50.880199-85.760335-36.960144-115.424451-128.800503-129.760506-220.352861-15.072059-91.680358 52.832206-83.968328 101.728397-46.27218 27.136106-25.056098 72.896285-31.456123 104.416408-17.216068 62.528244 28.416111 23.584092 74.368291 19.200075 100.192392-16.768066 100.576393 98.432385 47.616186 90.944355 132.768518z" fill="#E24B4B" p-id="8726"></path><path d="M559.086393 753.669269a31.680124 14.880058 9.294 1 0-62.528494-10.23271 31.680124 14.880058 9.294 1 0 62.528494 10.23271Z" fill="#FFFFFF" opacity=".25" p-id="8727"></path><path d="M376.28747 394.945543c0 33.984133-27.520108 61.216239-61.50424 61.216239-33.696132 0-61.216239-27.232106-61.21624-61.216239s27.520108-61.184239 61.21624-61.184239c33.984133 0 61.50424 27.232106 61.50424 61.184239z" fill="#3E4347" p-id="8728"></path><path d="M354.106041 385.435509a20.928082 12.76805 45.001 1 0-29.59626-29.597294 20.928082 12.76805 45.001 1 0 29.59626 29.597294Z" fill="#5A5F63" p-id="8729"></path><path d="M338.111321 372.993457m-145.536569 0a145.536569 145.536569 0 1 0 291.073137 0 145.536569 145.536569 0 1 0-291.073137 0Z" fill="#F4C534" p-id="8730"></path><path d="M452.863769 373.089457c-4.096016 68.576268-58.81623 124.256485-122.080477 124.256486-63.584248 0-111.616436-55.680218-107.52042-124.256486 4.128016-68.896269 58.84823-124.608487 122.432478-124.608486 63.264247 0.032 111.296435 55.712218 107.168419 124.608486z" fill="#FFFFFF" p-id="8731"></path><path d="M427.871671 386.273509c0 37.408146-30.304118 67.392263-67.712264 67.392263-37.088145 0-67.392263-29.984117-67.392263-67.392263s30.304118-67.392263 67.392263-67.392263c37.408146 0 67.712265 29.984117 67.712264 67.392263z" fill="#3E4347" p-id="8732"></path><path d="M403.525032 376.016322a23.04009 14.080055 45.001 1 0-32.583039-32.584177 23.04009 14.080055 45.001 1 0 32.583039 32.584177Z" fill="#5A5F63" p-id="8733"></path><path d="M685.888679 378.721479m-145.536568 0a145.536569 145.536569 0 1 0 291.073137 0 145.536569 145.536569 0 1 0-291.073137 0Z" fill="#F4C534" p-id="8734"></path><path d="M800.609127 378.84948c-4.096016 68.576268-58.81623 124.256485-122.080476 124.256485-63.584248 0-111.616436-55.680218-107.52042-124.256485 4.128016-68.896269 58.84823-124.608487 122.432478-124.608487 63.264247 0 111.296435 55.680218 107.168418 124.608487z" fill="#FFFFFF" p-id="8735"></path><path d="M734.976871 350.465369c0 37.408146-30.304118 67.392263-67.712264 67.392263-37.088145 0-67.392263-29.984117-67.392264-67.392263s30.304118-67.392263 67.392264-67.392263c37.440146 0 67.712265 29.984117 67.712264 67.392263z" fill="#3E4347" p-id="8736"></path><path d="M710.739646 340.197596a23.04009 14.080055 45.001 1 0-32.583039-32.584176 23.04009 14.080055 45.001 1 0 32.583039 32.584176Z" fill="#5A5F63" p-id="8737"></path><path d="M453.21577 138.624542C315.359232 263.55303 177.502693 93.408365 171.326669 85.536334c131.680514 69.824273 281.889101 62.720245 281.889101 53.088208zM561.760194 174.368681c137.856539-124.928488 275.713077 45.216177 281.889102 53.088208-125.31249-70.848277-278.337087-63.008246-281.889102-53.088208z" fill="#3E4347" p-id="8738"></path><path d="M665.6326 958.531744c0.160001-1.984008-0.032-3.520014 0-5.344021-3.488014 11.712046-10.944043 22.432088-20.864081 29.760117-14.880058 11.008043-33.696132 15.45606-52.192204 16.512064-59.360232 3.360013-116.896457-26.560104-159.008621-68.544268-32.640128-32.576127-57.248224-71.936281-78.976309-112.80044 16.128063 81.344318 47.840187 158.272618 124.512486 191.296747 55.552217 23.776093 179.808702 25.856101 186.528729-50.880199z" fill="#D03F3F" p-id="8739"></path></svg>